{"accessors":[{"bufferView":0,"componentType":5125,"count":6,"max":[3],"min":[0],"type":"SCALAR"},{"bufferView":1,"componentType":5126,"count":4,"max":[5,5,0],"min":[-5,-5,0],"type":"VEC3"},{"bufferView":2,"componentType":5126,"count":4,"max":[0,0,1],"min":[0,0,1],"type":"VEC3"},{"bufferView":3,"componentType":5126,"count":4,"max":[1,1],"min":[0,0],"type":"VEC2"},{"bufferView":4,"componentType":5125,"count":3996,"max":[891],"min":[0],"type":"SCALAR"},{"bufferView":5,"componentType":5126,"count":892,"max":[76.0969009399414,15.644100189208984,-24.765499114990234],"min":[52.77410125732422,0.44504499435424805,-50.43130111694336],"type":"VEC3"},{"bufferView":6,"componentType":5126,"count":892,"max":[1,0.9987884163856506,0.993319571018219],"min":[-1,-0.9987884163856506,-0.993319571018219],"type":"VEC3"},{"bufferView":7,"componentType":5126,"count":892,"max":[0.8710169792175293,1.0883954763412476],"min":[-0.31446000933647156,0.1330140233039856],"type":"VEC2"},{"bufferView":8,"componentType":5125,"count":972,"max":[347],"min":[0],"type":"SCALAR"},{"bufferView":9,"componentType":5126,"count":348,"max":[76.0969009399414,3.0782299041748047,-22.997699737548828],"min":[52.77410125732422,-0.14581899344921112,-52.68130111694336],"type":"VEC3"},{"bufferView":10,"componentType":5126,"count":348,"max":[1,0.9999157190322876,0.9997555613517761],"min":[-1,-0.9998910427093506,-0.9999997615814209],"type":"VEC3"},{"bufferView":11,"componentType":5126,"count":348,"max":[0.9747809767723083,0.9927750825881958],"min":[0.05609440058469772,0.902337908744812],"type":"VEC2"},{"bufferView":12,"componentType":5125,"count":20364,"max":[17216],"min":[0],"type":"SCALAR"},{"bufferView":13,"componentType":5126,"count":17217,"max":[79.41100311279297,34.159000396728516,-25.337799072265625],"min":[49.459999084472656,2.075540065765381,-54.83359909057617],"type":"VEC3"},{"bufferView":14,"componentType":5126,"count":17217,"max":[0.9999905824661255,0.9999828338623047,0.9998775124549866],"min":[-0.9999905824661255,-0.9999745488166809,-0.9999067783355713],"type":"VEC3"},{"bufferView":15,"componentType":5126,"count":17217,"max":[32.15959930419922,27.5935001373291],"min":[-32.17499923706055,-41.31050109863281],"type":"VEC2"},{"bufferView":16,"componentType":5125,"count":17736,"max":[3709],"min":[0],"type":"SCALAR"},{"bufferView":17,"componentType":5126,"count":3710,"max":[79.3738021850586,34.120601654052734,-25.81170082092285],"min":[49.497100830078125,12.148900032043457,-54.794898986816406],"type":"VEC3"},{"bufferView":18,"componentType":5126,"count":3710,"max":[0.9982540011405945,0.9999939799308777,0.9998946189880371],"min":[-0.9982540011405945,-0.9999446868896484,-0.9991645216941833],"type":"VEC3"},{"bufferView":19,"componentType":5126,"count":3710,"max":[0.6412649750709534,0.506505012512207],"min":[0.19829800724983215,0.024828970432281494],"type":"VEC2"}],"asset":{"generator":"SimLab GLTF","version":"2.0"},"bufferViews":[{"buffer":0,"byteLength":24,"target":34963},{"buffer":0,"byteLength":48,"byteOffset":24,"byteStride":12,"target":34962},{"buffer":0,"byteLength":48,"byteOffset":72,"byteStride":12,"target":34962},{"buffer":0,"byteLength":32,"byteOffset":120,"byteStride":8,"target":34962},{"buffer":0,"byteLength":15984,"byteOffset":152,"target":34963},{"buffer":0,"byteLength":10704,"byteOffset":16136,"byteStride":12,"target":34962},{"buffer":0,"byteLength":10704,"byteOffset":26840,"byteStride":12,"target":34962},{"buffer":0,"byteLength":7136,"byteOffset":37544,"byteStride":8,"target":34962},{"buffer":0,"byteLength":3888,"byteOffset":44680,"target":34963},{"buffer":0,"byteLength":4176,"byteOffset":48568,"byteStride":12,"target":34962},{"buffer":0,"byteLength":4176,"byteOffset":52744,"byteStride":12,"target":34962},{"buffer":0,"byteLength":2784,"byteOffset":56920,"byteStride":8,"target":34962},{"buffer":0,"byteLength":81456,"byteOffset":59704,"target":34963},{"buffer":0,"byteLength":206604,"byteOffset":141160,"byteStride":12,"target":34962},{"buffer":0,"byteLength":206604,"byteOffset":347764,"byteStride":12,"target":34962},{"buffer":0,"byteLength":137736,"byteOffset":554368,"byteStride":8,"target":34962},{"buffer":0,"byteLength":70944,"byteOffset":692104,"target":34963},{"buffer":0,"byteLength":44520,"byteOffset":763048,"byteStride":12,"target":34962},{"buffer":0,"byteLength":44520,"byteOffset":807568,"byteStride":12,"target":34962},{"buffer":0,"byteLength":29680,"byteOffset":852088,"byteStride":8,"target":34962}],"buffers":[{"byteLength":881768,"uri":"data:application/octet-stream;base64,"}],"images":[{"mimeType":"image/jpeg","uri":"data:application/octet-stream;base64,"},{"mimeType":"image/jpeg","uri":"data:application/octet-stream;base64,"},{"mimeType":"image/jpeg","uri":"data:application/octet-stream;base64,"},{"mimeType":"image/jpeg","uri":"data:application/octet-stream;base64,"}],"materials":[{"alphaMode":"MASK","doubleSided":true,"pbrMetallicRoughness":{"baseColorFactor":[0.8999999761581421,0.8999999761581421,0.8999999761581421,1],"baseColorTexture":{"index":0},"metallicFactor":0}},{"alphaMode":"MASK","doubleSided":true,"pbrMetallicRoughness":{"baseColorFactor":[0.2901960015296936,0.21960799396038055,0.16862699389457703,1],"baseColorTexture":{"index":1},"metallicFactor":0}},{"alphaMode":"MASK","doubleSided":true,"pbrMetallicRoughness":{"baseColorFactor":[0.7137249708175659,0.6823530197143555,0.6627449989318848,1],"baseColorTexture":{"index":2},"metallicFactor":0}},{"alphaMode":"MASK","doubleSided":true,"pbrMetallicRoughness":{"metallicFactor":0}},{"alphaMode":"MASK","doubleSided":true,"pbrMetallicRoughness":{"baseColorFactor":[0.7098039984703064,0.6588240265846252,0.6196079850196838,1],"baseColorTexture":{"index":3},"metallicFactor":0}}],"meshes":[{"primitives":[{"attributes":{"NORMAL":2,"POSITION":1,"TEXCOORD_0":3},"indices":0,"material":0,"mode":4}]},{"primitives":[{"attributes":{"NORMAL":6,"POSITION":5,"TEXCOORD_0":7},"indices":4,"material":1,"mode":4}]},{"primitives":[{"attributes":{"NORMAL":10,"POSITION":9,"TEXCOORD_0":11},"indices":8,"material":2,"mode":4}]},{"primitives":[{"attributes":{"NORMAL":14,"POSITION":13,"TEXCOORD_0":15},"indices":12,"material":3,"mode":4}]},{"primitives":[{"attributes":{"NORMAL":18,"POSITION":17,"TEXCOORD_0":19},"indices":16,"material":4,"mode":4}]}],"nodes":[{"children":[1,5],"matrix":[1,0,0,0,0,4.4896593387466766e-11,-1,0,0,1,4.4896593387466766e-11,0,0,0,0,1]},{"name":"Ground","children":[2],"rotation":[0,0,0,-1]},{"name":"3DGeom-1","children":[4],"rotation":[0,0,0,-1]},{"mesh":0},{"children":[3]},{"name":"Untitled","children":[6,9,12,15,18,19],"rotation":[0,0,0,-1]},{"name":"3DGeom-1","children":[8],"rotation":[0,0,0,-1]},{"mesh":1},{"children":[7]},{"name":"3DGeom-2","children":[11],"rotation":[0,0,0,-1]},{"mesh":2},{"children":[10]},{"name":"3DGeom-3","children":[14],"rotation":[0,0,0,-1]},{"mesh":3},{"children":[13]},{"name":"3DGeom-4","children":[17],"rotation":[0,0,0,-1]},{"mesh":4},{"children":[16]},{"name":"Mesh12 Group12 Component_1_1 gh__29_1 Model","rotation":[0,0,0,-1]},{"name":"Mesh27 Group26 Component_1_2 gh__29_1 Model","rotation":[0,0,0,-1]}],"samplers":[{"wrapS":10497,"wrapT":10497}],"scene":0,"scenes":[{"nodes":[0]}],"textures":[{"source":0},{"source":1},{"source":2},{"source":3}]}